<?xml version="1.0" encoding="UTF-8" standalone="no"?>
<!-- Created with Inkscape (http://www.inkscape.org/) -->

<svg
   width="45.401352mm"
   height="17.455276mm"
   viewBox="0 0 45.401352 17.455276"
   version="1.1"
   id="svg5"
   inkscape:version="1.1 (c4e8f9ed74, 2021-05-24)"
   sodipodi:docname="logo.svg"
   xmlns:inkscape="http://www.inkscape.org/namespaces/inkscape"
   xmlns:sodipodi="http://sodipodi.sourceforge.net/DTD/sodipodi-0.dtd"
   xmlns="http://www.w3.org/2000/svg"
   xmlns:svg="http://www.w3.org/2000/svg">
  <sodipodi:namedview
     id="namedview7"
     pagecolor="#ffffff"
     bordercolor="#666666"
     borderopacity="1.0"
     inkscape:pageshadow="2"
     inkscape:pageopacity="0.0"
     inkscape:pagecheckerboard="0"
     inkscape:document-units="mm"
     showgrid="false"
     inkscape:zoom="1.4488348"
     inkscape:cx="244.33427"
     inkscape:cy="136.66154"
     inkscape:window-width="1362"
     inkscape:window-height="699"
     inkscape:window-x="0"
     inkscape:window-y="0"
     inkscape:window-maximized="1"
     inkscape:current-layer="layer1"
     fit-margin-top="0"
     fit-margin-left="0"
     fit-margin-right="0"
     fit-margin-bottom="0" />
  <defs
     id="defs2">
    <clipPath
       clipPathUnits="userSpaceOnUse"
       id="clipPath1016">
      <path
         d="M 0,841.89 H 595.276 V 0 H 0 Z"
         id="path1014" />
    </clipPath>
    <clipPath
       clipPathUnits="userSpaceOnUse"
       id="clipPath1044">
      <path
         d="M 0,841.89 H 595.276 V 0 H 0 Z"
         id="path1042" />
    </clipPath>
  </defs>
  <g
     inkscape:label="Layer 1"
     inkscape:groupmode="layer"
     id="layer1"
     transform="translate(-40.27237,-112.82567)">
    <g
       inkscape:label="Layer 1"
       id="layer1-5"
       transform="matrix(0.29869201,0,0,0.29869201,63.719039,76.536016)">
      <path
         style="fill:#f2f2f2;fill-opacity:1;stroke-width:0.264583"
         d="m -53.194115,178.99262 c 0,-0.68364 0.09062,-0.88683 0.33073,-0.74158 0.181901,0.11004 0.860054,0.53379 1.507008,0.94166 l 1.176279,0.74158 h -1.507008 -1.507009 z m 2.976563,-1.23955 c -2.849951,-1.57506 -2.976563,-1.68183 -2.976563,-2.51005 0,-0.47576 0.0893,-0.8634 0.198438,-0.86144 0.548517,0.01 7.35406,4.21418 7.427733,4.58868 0.184843,0.93955 -1.585902,0.476 -4.649608,-1.21719 z m 1.389063,-2.9774 c -4.176136,-2.42543 -4.234465,-2.47189 -4.317029,-3.43899 -0.04603,-0.53919 0.0135,-0.92789 0.132292,-0.86379 2.760241,1.48954 8.375978,4.89064 8.467047,5.12797 0.06753,0.17597 0.08413,0.61549 0.0369,0.9767 -0.08351,0.63862 -0.202724,0.58889 -4.319209,-1.80189 z m 0.172021,-3.82043 c -2.233721,-1.28978 -4.17716,-2.46091 -4.318752,-2.6025 -0.141592,-0.14159 -0.219002,-0.61915 -0.172022,-1.06122 l 0.08542,-0.80379 4.101042,2.37796 c 2.255573,1.30788 4.199012,2.47274 4.318752,2.58858 0.119742,0.11584 0.179273,0.57859 0.132291,1.02833 l -0.08542,0.81771 z m -0.369438,-4.07369 -4.166167,-2.42542 -10e-4,-0.97366 -0.001,-0.97366 4.365626,2.55164 c 4.241064,2.47883 4.365625,2.57644 4.365625,3.42106 0,0.47818 -0.0893,0.85952 -0.198438,0.84743 -0.10914,-0.0121 -2.073211,-1.11341 -4.364604,-2.44739 z m 0.131271,-3.79863 c -4.251868,-2.48822 -4.29948,-2.52629 -4.29948,-3.43774 0,-0.50691 0.101035,-0.88197 0.224522,-0.83346 0.123486,0.0485 2.084434,1.15976 4.35766,2.46944 l 4.133141,2.38125 0.008,0.99219 c 0.0044,0.54571 -0.0218,0.98144 -0.05818,0.9683 -0.03638,-0.0131 -2.000912,-1.15614 -4.365625,-2.53998 z m 0.223231,-3.78641 c -2.241935,-1.29681 -4.185373,-2.46697 -4.318751,-2.60034 -0.133378,-0.13338 -0.204067,-0.61032 -0.157087,-1.05986 l 0.08542,-0.81735 4.101042,2.39466 c 2.255573,1.31706 4.199012,2.48803 4.318752,2.60215 0.119742,0.11411 0.179273,0.57448 0.132291,1.02303 l -0.08542,0.81555 z m -0.350567,-4.05889 -4.162234,-2.42312 -0.005,-0.98326 -0.005,-0.98327 2.976563,1.7433 c 1.63711,0.95882 3.601641,2.09727 4.365625,2.52988 1.24967,0.70764 1.389063,0.87697 1.389063,1.68736 0,0.49543 -0.0893,0.88986 -0.198438,0.87651 -0.10914,-0.0134 -2.071441,-1.11468 -4.360669,-2.4474 z m -14.292457,-0.54248 c -0.289822,-0.22 -0.46302,-0.70703 -0.46302,-1.30199 v -0.95051 l 1.423093,0.84334 1.423094,0.84334 -0.76803,0.46707 c -0.907657,0.55198 -1.009856,0.55823 -1.615137,0.0987 z m 8.995834,-6.4487 -9.458854,-5.48209 v -0.98277 -0.98277 l 3.373437,1.96917 c 1.855391,1.08304 6.198791,3.60797 9.652001,5.61096 6.151068,3.56786 6.278668,3.65927 6.283854,4.5017 0.0029,0.47295 -0.084,0.8572 -0.193146,0.85389 -0.10914,-0.003 -4.454922,-2.47294 -9.657292,-5.48809 z m -7.099901,3.66202 c -2.093377,-1.19505 -2.231577,-1.32872 -2.308779,-2.23307 -0.04516,-0.52906 -0.02211,-0.96193 0.05124,-0.96193 0.219207,0 5.292548,2.96706 5.68617,3.32547 0.30252,0.27545 0.232085,0.39911 -0.419172,0.73588 -0.761528,0.3938 -0.843283,0.37027 -3.009455,-0.86635 z m 1.477505,-3.01788 c -3.659866,-2.14868 -3.705167,-2.18677 -3.787785,-3.18545 l -0.08362,-1.01076 1.548602,0.88506 c 6.215851,3.55251 7.997613,4.60884 8.004017,4.7452 0.0095,0.20263 -1.246191,0.77444 -1.65877,0.75535 -0.175054,-0.008 -1.985155,-0.99333 -4.022447,-2.1894 z m 5.820834,-4.40958 -9.525001,-5.5109 -0.08212,-0.94915 c -0.04516,-0.52204 -0.01286,-0.94916 0.07178,-0.94916 0.197879,0 18.724244,10.81156 19.013466,11.09582 0.119742,0.11769 0.179273,0.57629 0.132291,1.01913 l -0.08542,0.80515 z m 0,-3.85553 c -5.09323,-2.9667 -9.358501,-5.42935 -9.478382,-5.47254 -0.11988,-0.0432 -0.179412,-0.5196 -0.132292,-1.05868 l 0.08567,-0.98014 9.525001,5.55189 c 9.465112,5.51697 9.525516,5.5577 9.607119,6.47675 0.04516,0.50868 -0.01437,0.91404 -0.132292,0.9008 -0.117927,-0.0132 -4.381598,-2.45138 -9.474827,-5.41808 z m -0.06615,-3.9042 -9.591146,-5.58886 v -0.98072 -0.98073 l 6.151562,3.5819 c 3.38336,1.97005 7.726922,4.49188 9.652358,5.60407 l 3.500795,2.02215 0.0049,0.99219 c 0.0027,0.5457 -0.02484,0.98019 -0.06121,0.96552 -0.03638,-0.0147 -4.382161,-2.54165 -9.657292,-5.61552 z m 0.06615,-3.88558 -9.525001,-5.50698 -0.08212,-0.94929 c -0.04516,-0.52211 -0.01286,-0.9493 0.07178,-0.9493 0.197879,0 18.724244,10.81156 19.013466,11.09582 0.119742,0.11769 0.179273,0.5746 0.132291,1.01535 l -0.08542,0.80138 z m 0,-3.84866 c -5.09323,-2.96843 -9.358501,-5.4325 -9.478382,-5.47572 -0.11988,-0.0432 -0.179412,-0.51452 -0.132292,-1.04733 l 0.08567,-0.96875 9.525001,5.54006 c 9.469385,5.50771 9.525479,5.54546 9.607119,6.46536 0.04516,0.50892 -0.01437,0.9159 -0.132292,0.90441 -0.117927,-0.0115 -4.381598,-2.44961 -9.474827,-5.41803 z"
         id="path147"
         sodipodi:nodetypes="ssscccssscsssscssssssscssscsccccsssscsssscscssssscssscsccccsssccccscccsccscccssscsssssssssscsscssccssssccssscsscssccccsscssccccssssccssscsssss"
         inkscape:export-filename="/home/pixendrit/path147.png"
         inkscape:export-xdpi="96"
         inkscape:export-ydpi="96" />
      <path
         style="fill:#f2f2f2;fill-opacity:1;stroke-width:0.296252"
         d="m -78.496127,173.34306 0.0023,-6.48906 10.866237,-5.97868 c 5.976434,-3.28828 10.986117,-6.02244 11.132625,-6.0759 0.152001,-0.0554 0.266389,5.29855 0.266389,12.46775 v 12.56495 H -67.363205 -78.49781 Z"
         id="path141"
         sodipodi:nodetypes="ccssscccc"
         inkscape:export-filename="/home/pixendrit/path147.png"
         inkscape:export-xdpi="96"
         inkscape:export-ydpi="96" />
      <g
         id="g994"
         transform="matrix(0.35277777,0,0,-0.35277777,-35.304894,147.79321)"
         style="fill:#f2f2f2"
         inkscape:export-filename="/home/pixendrit/path147.png"
         inkscape:export-xdpi="96"
         inkscape:export-ydpi="96">
        <path
           d="M 0,0 11.975,-15.277 V -58.178 H 0 Z"
           style="fill:#f2f2f2;fill-opacity:1;fill-rule:nonzero;stroke:none"
           id="path996" />
      </g>
      <g
         id="g998"
         transform="matrix(0.35277777,0,0,-0.35277777,-15.101311,153.1827)"
         style="fill:#f2f2f2"
         inkscape:export-filename="/home/pixendrit/path147.png"
         inkscape:export-xdpi="96"
         inkscape:export-ydpi="96">
        <path
           d="m 0,0 v -42.9 h -9.774 l -17.044,23.281 V -42.9 H -38.271 V 0 h 10.345 l 16.473,-22.508 V 0 Z"
           style="fill:#f2f2f2;fill-opacity:1;fill-rule:nonzero;stroke:none"
           id="path1000" />
      </g>
      <g
         id="g1002"
         transform="matrix(0.35277777,0,0,-0.35277777,-1.2749284,156.93717)"
         style="fill:#f2f2f2"
         inkscape:export-filename="/home/pixendrit/path147.png"
         inkscape:export-xdpi="96"
         inkscape:export-ydpi="96">
        <path
           d="M 0,0 H -11.653 V -32.258 H -23.524 V 0 H -35.178 V 10.643 H 0 Z"
           style="fill:#f2f2f2;fill-opacity:1;fill-rule:nonzero;stroke:none"
           id="path1004" />
      </g>
      <g
         id="g1006"
         transform="matrix(0.35277777,0,0,-0.35277777,9.9989676,164.70068)"
         style="fill:#f2f2f2"
         inkscape:export-filename="/home/pixendrit/path147.png"
         inkscape:export-xdpi="96"
         inkscape:export-ydpi="96">
        <path
           d="m 0,0 v -10.251 h -27.968 v 42.9 h 27.45 V 22.433 H -16.202 V 16.116 H -2.111 V 6.422 H -16.202 V 0 Z"
           style="fill:#f2f2f2;fill-opacity:1;fill-rule:nonzero;stroke:none"
           id="path1008" />
      </g>
      <g
         id="g1010"
         transform="matrix(0.35277777,0,0,-0.35277777,-97.504554,270.07346)"
         style="fill:#f2f2f2"
         inkscape:export-filename="/home/pixendrit/path147.png"
         inkscape:export-xdpi="96"
         inkscape:export-ydpi="96">
        <g
           id="g1012"
           clip-path="url(#clipPath1016)"
           style="fill:#f2f2f2">
          <g
             id="g1018"
             transform="translate(322.0479,311.5255)"
             style="fill:#f2f2f2">
            <path
               d="m 0,0 h 5.399 c 3.303,0 5.205,1.989 5.205,4.671 0,2.682 -1.902,4.644 -5.205,4.644 L 0,9.315 Z M 4.285,-9.956 H 0 v -13.126 h -11.818 v 42.9 H 6.775 c 9.248,0 15.953,-6.214 15.953,-15.182 0,-5.265 -2.572,-9.578 -6.81,-12.116 l 8.519,-15.602 H 11.245 Z"
               style="fill:#f2f2f2;fill-opacity:1;fill-rule:nonzero;stroke:none"
               id="path1020" />
          </g>
          <g
             id="g1022"
             transform="translate(370.5811,287.3575)"
             style="fill:#f2f2f2">
            <path
               d="m 0,0 c -13.058,0 -22.81,9.667 -22.81,22.5 0,12.903 9.752,22.57 22.81,22.57 11.243,0 19.951,-7.422 21.694,-18.299 H 9.72 c -1.473,4.4 -5.179,7.256 -9.695,7.256 -6.074,0 -10.53,-4.883 -10.53,-11.527 0,-6.617 4.456,-11.431 10.53,-11.431 4.761,0 8.503,3.102 9.704,7.869 H 21.817 C 20.187,7.658 11.427,0.001 0,0.001 Z"
               style="fill:#f2f2f2;fill-opacity:1;fill-rule:nonzero;stroke:none"
               id="path1024" />
          </g>
          <g
             id="g1026"
             transform="translate(418.1592,298.3546)"
             style="fill:#f2f2f2">
            <path
               d="m 0,0 c 6.529,0 11.255,4.823 11.255,11.537 0,6.714 -4.726,11.537 -11.255,11.537 -6.53,0 -11.327,-4.858 -11.327,-11.536 C -11.327,4.859 -6.53,0.001 0,0.001 Z m 0,-10.997 c -13.792,0 -23.633,9.424 -23.633,22.535 0,13.111 9.841,22.535 23.633,22.535 13.755,0 23.561,-9.387 23.561,-22.535 0,-13.146 -9.806,-22.534 -23.561,-22.534 z"
               style="fill:#f2f2f2;fill-opacity:1;fill-rule:nonzero;stroke:none"
               id="path1028" />
          </g>
          <g
             id="g1030"
             transform="translate(484.7451,331.3439)"
             style="fill:#f2f2f2">
            <path
               d="m 0,0 v -42.9 h -9.775 l -17.043,23.281 V -42.9 H -38.271 V 0 h 10.344 l 16.473,-22.508 V 0 Z"
               style="fill:#f2f2f2;fill-opacity:1;fill-rule:nonzero;stroke:none"
               id="path1032" />
          </g>
        </g>
      </g>
      <text
         style="font-variant:normal;font-weight:500;font-stretch:normal;font-size:9.24916px;font-family:'Montserrat Medium';-inkscape-font-specification:Montserrat-Medium;writing-mode:lr-tb;fill:#f2f2f2;fill-opacity:1;fill-rule:nonzero;stroke:none;stroke-width:0.352778"
         id="text1036"
         x="-19.469688"
         y="179.17325"
         inkscape:export-filename="/home/pixendrit/path147.png"
         inkscape:export-xdpi="96"
         inkscape:export-ydpi="96"><tspan
           x="-19.469688 -12.921282 -5.1519837 2.3583353 8.009573 13.438833 20.162977 27.479063 34.092213 39.521473 42.388706 50.158009"
           y="179.17325"
           sodipodi:role="line"
           id="tspan1034"
           style="fill:#f2f2f2;stroke-width:0.352778">CONSTRUCTION</tspan></text>
    </g>
  </g>
</svg>
